<svg id="Ebene_1" xmlns="http://www.w3.org/2000/svg" viewBox="0 0 879.3 61.9" style="max-width:250px;"><style>.st0{fill:#030304}</style><path class="st0" d="M.1.9h24.8C37.7.9 46.3 8 46.3 19.5c0 13.1-9.8 19.1-21.7 19.1H13V61H0V.9h.1zm13 27.3H23c6 0 10.3-2.4 10.3-8.5 0-6.2-4.5-8.5-10-8.5H13.1v17zM74.5 43.4c1.4 6 5.7 8.7 12.6 8.7 7 0 9.9-2.8 9.9-7.1 0-5-2.9-7.1-13.2-9.4-16.4-3.8-20.4-9.8-20.4-18C63.4 7.1 71.2.1 85.5.1c16 0 22.3 8.5 23.2 17.3H95.6c-.7-3.7-2.7-7.8-10.5-7.8-5.3 0-8.5 2.2-8.5 6.5 0 4.2 2.5 5.9 12.3 8.1 17.4 4.2 21.3 10.6 21.3 19.2 0 10.9-8.3 18.5-24.1 18.5-15.3 0-23.4-7.5-24.8-18.5h13.2zM141.7 61V39.7c0-.6-.1-1.2-.5-1.9L120.5.9h14.7c4.6 9.1 10.6 21.1 13.7 27.6 2.6-6.3 9.2-19 13.7-27.6h13.6l-21 36.7c-.2.4-.4.7-.4 1.9v21.4h-13.1v.1zM239.9 42.4c-2.4 11.2-10.8 19.4-25.9 19.4-19.1 0-28.1-13.5-28.1-30.6 0-16.5 9.3-31.2 28.7-31.2 16 0 23.8 9.3 25.3 19.4h-13c-1.3-4.7-4.5-9.3-12.7-9.3-10.7 0-14.8 9.7-14.8 20.7 0 10.1 3.6 20.8 15.2 20.8 8.5 0 11.2-5.7 12.3-9.2h13zM258.6.9h13v23.4h24.2V.9h13v60h-13v-26h-24.2v26h-13V.9zM387.2 30.8c0 16.7-10 31.1-29.5 31.1-18.9 0-28.8-13.7-28.8-30.9 0-17.4 10.9-30.9 29.5-30.9 17.6 0 28.8 12.3 28.8 30.7zm-44.9-.1c0 11.8 5.1 20.7 15.8 20.7 11.6 0 15.7-9.7 15.7-20.4 0-11.4-4.7-20.3-15.9-20.3-10.9-.1-15.6 8.3-15.6 20zM407.2 61V1h16.1c7.5 13.4 21.4 37.8 24.1 44.4h.2c-.7-6.3-.7-16.7-.7-26.6V.9h11.8v60h-15.3c-6.4-11.8-21.8-39.7-24.8-46.6h-.2c.4 5.2.6 17.6.6 28.3v18.3l-11.8.1zM493 47.1L488.4 61h-12.8L496 1h16.3l21.4 60H520l-5-13.9h-22zm19.1-10.6c-4.3-12.7-7-20.8-8.5-26.2-1.5 5.9-4.4 15.3-7.8 26.2h16.3zM560.7.9v35.7c0 11.6 5.9 15 12.5 15 7.4 0 12-4 12-15V.9h13.1V36c0 20.6-12 25.8-25.3 25.8-13.6 0-25.3-5.5-25.3-25.5V.9h13zM633.8 11.6h-18.3V.9H665v10.6h-18.2v49.4h-13V11.6zM692.8 61L676.5.3h8.5c4.7 19.9 11.2 45 12.4 51.9h.1c1.6-7.8 9.9-36.3 13.9-51.9h7.8c3.7 13.6 11.9 44.4 13.2 51.6h.1c2-10.5 10.5-39.1 13.8-51.6h7.9L736.5 61h-8.6c-3.7-13.9-11.4-42.9-12.9-50.1h-.1c-1.8 9.1-9.7 36.2-13.5 50.1h-8.6zM780.9.3V61h-8V.3h8zM806.1.3h7.9v29.8c4.5-4.7 20-20 29.5-29.8h10l-26.1 25.6 27.4 35H845L821.7 31l-7.8 7.1v22.8H806V.3h.1zM879.3.3V61h-8V.3h8z"/></svg>
